<svg width="250" height="214" viewBox="0 0 250 214" fill="none"
  xmlns="http://www.w3.org/2000/svg">
  <path d="M10 35C10 21.1929 21.1929 10 35 10H215C228.807 10 240 21.1929 240 35V179C240 192.807 228.807 204 215 204H35C21.1929 204 10 192.807 10 179V35Z" fill="#34495E"/>
  <path fill-rule="evenodd" clip-rule="evenodd" d="M35 0H215C234.33 0 250 15.67 250 35V179C250 198.33 234.33 214 215 214H35C15.67 214 0 198.33 0 179V35C0 15.67 15.67 0 35 0ZM35 10C21.1929 10 10 21.1929 10 35V179C10 192.807 21.1929 204 35 204H215C228.807 204 240 192.807 240 179V35C240 21.1929 228.807 10 215 10H35Z" fill="#42B983"/>
  <path d="M147.601 84.7258C145.944 88.6656 143.613 92.9418 140.995 97.194C135.758 105.698 129.56 113.794 125.74 118.551C125.428 118.935 124.923 118.935 124.635 118.551C120.815 113.794 114.617 105.674 109.38 97.194C106.762 92.9418 104.431 88.6656 102.774 84.7258C101.092 80.7139 100.203 77.3506 100.203 74.8281C100.203 61.0387 111.398 49.8438 125.188 49.8438C138.977 49.8438 150.172 61.0387 150.172 74.8281C150.172 77.3506 149.307 80.7139 147.601 84.7258ZM128.743 120.953C136.454 111.32 154.016 87.9449 154.016 74.8281C154.016 58.9006 141.115 46 125.188 46C109.26 46 96.3594 58.9006 96.3594 74.8281C96.3594 87.9449 113.921 111.32 121.632 120.953C123.482 123.259 126.917 123.259 128.743 120.953ZM157.163 91.6445L185.366 81.3865C187.865 80.4736 190.531 82.3234 190.531 84.99V147.667C190.531 149.277 189.522 150.718 188.009 151.271L152.094 164.339V117.109C152.094 116.052 151.229 115.188 150.172 115.188C149.115 115.188 148.25 116.052 148.25 117.109V164.484L102.125 150.286V117.109C102.125 116.052 101.26 115.188 100.203 115.188C99.1461 115.188 98.2812 116.052 98.2812 117.109V150.358L65.0088 162.466C62.4863 163.379 59.8438 161.505 59.8438 158.838V96.1609C59.8438 94.5514 60.8527 93.11 62.3662 92.5574L89.801 82.5877C89.4646 81.3385 89.1764 80.0652 88.9842 78.792L61.0689 88.9299C58.018 90.035 56 92.9418 56 96.1609V158.838C56 164.171 61.3092 167.895 66.3061 166.069L100.251 153.721L149.595 168.904C150.004 169.024 150.412 169.024 150.821 168.88L189.306 154.874C192.333 153.769 194.375 150.886 194.375 147.643V84.99C194.375 79.6568 189.066 75.9332 184.069 77.759L159.205 86.7918C158.892 87.6086 158.58 88.4014 158.244 89.1941C157.907 89.9869 157.547 90.8037 157.163 91.6205V91.6445ZM117.5 72.9063C117.5 70.8674 118.31 68.9121 119.752 67.4704C121.193 66.0287 123.149 65.2188 125.188 65.2188C127.226 65.2188 129.182 66.0287 130.623 67.4704C132.065 68.9121 132.875 70.8674 132.875 72.9063C132.875 74.9451 132.065 76.9004 130.623 78.3421C129.182 79.7838 127.226 80.5938 125.188 80.5938C123.149 80.5938 121.193 79.7838 119.752 78.3421C118.31 76.9004 117.5 74.9451 117.5 72.9063ZM136.719 72.9063C136.719 69.848 135.504 66.915 133.341 64.7524C131.179 62.5899 128.246 61.375 125.188 61.375C122.129 61.375 119.196 62.5899 117.034 64.7524C114.871 66.915 113.656 69.848 113.656 72.9063C113.656 75.9645 114.871 78.8975 117.034 81.0601C119.196 83.2226 122.129 84.4375 125.188 84.4375C128.246 84.4375 131.179 83.2226 133.341 81.0601C135.504 78.8975 136.719 75.9645 136.719 72.9063Z" fill="white" stroke="white" stroke-width="3"/>
  <path d="M101.5 64L109.5 53L123.207 48.5941L127.5 48.5L136 51L146.5 59L152.5 72L150 85L141 102L125 121L103 91.5L99 81V73L101.5 64Z" fill="white"/>
  <circle cx="125.5" cy="72.5" r="11.5" fill="#34495E"/>
</svg>
